# xmcd CD database file
#
# Track frame offsets:
#	150
#	13137
#	31432
#	46630
#	70432
#	93875
#	116542
#	130530
#	154817
#	170775
#	189210
#	206142
#
# Disc length: 3084 seconds
#
# Revision: 1
# Processed by: cddbd v1.5.1PL2 Copyright (c) Steve Scherf et al.
# Submitted via: CDex 1.51
#
DISCID=9c0c0a0c
DTITLE=Bossacucanova - Brasilidade
DYEAR=2001
DGENRE=Jazz
TTITLE0=Telefone
TTITLE1=Nana'
TTITLE2=Rio
TTITLE3=Guanabara
TTITLE4=Agua De Beber
TTITLE5=Garota De Ipanema
TTITLE6=A Morte De Um Deus De Sal
TTITLE7=Brasilidade
TTITLE8=Surfboard
TTITLE9=Nos E O Mar
TTITLE10=Mais Perto Do Mar
TTITLE11=Bye Bye, Brasil
EXTD=YEAR: 2001
EXTT0=
EXTT1=
EXTT2=
EXTT3=
EXTT4=
EXTT5=
EXTT6=
EXTT7=
EXTT8=
EXTT9=
EXTT10=
EXTT11=
PLAYORDER=
